<svg xmlns="http://www.w3.org/2000/svg" viewBox="0 0 220 220" id="Running">
  <path d="M166.8 114.4H142l-10.64-34.56.4-.76a22 22 0 0 0 3.64.32 20 20 0 1 0-14.24-6l-.08.16H88.6l-.4.12a2.45 2.45 0 0 0-.48.2s-.08 0-.12 0a1.87 1.87 0 0 0-.4.2 4.88 4.88 0 0 0-1.28 1s-.08 0-.08.08l-.24.24c0 .08-.12.12-.16.2a.7.7 0 0 1-.16.2 1.22 1.22 0 0 0-.2.28l-22 34a6 6 0 1 0 10 6.48l20.2-31.04h21.12L98.76 113.8a7.13 7.13 0 0 0-.56 1.44 8.58 8.58 0 0 0-.92 1.12c-.08.16-.2.32-.28.48s-.2.16-.28.24l-22.16 20.36-34.24-6.64A6 6 0 1 0 38 142.6l37.12 7.2h.08a1.11 1.11 0 0 0 .36 0h.8a9.81 9.81 0 0 0 1.08-.08s.08 0 .08 0 .28 0 .4-.08a.31.31 0 0 0 .2-.08c.08 0 .2 0 .28-.08l.24-.12.24-.12.24-.12.24-.12a.84.84 0 0 0 .24-.16c.08 0 .16-.12.24-.16a.7.7 0 0 0 .2-.16c.08-.08.16-.12.24-.2s.08 0 .12-.08l23-21.12 24.88 15.24-.76 39a6 6 0 0 0 5.88 6.12h.12a6 6 0 0 0 6-5.88l.8-42v-.2a6 6 0 0 0-2.84-5.44L110.4 117.4l12.8-23.12 8.6 27.8a6 6 0 0 0 5.72 4.24h29.2a6 6 0 0 0 6-6 5.92 5.92 0 0 0-5.92-5.92Zm-31.4-63a8 8 0 1 1-8 8 8 8 0 0 1 8-8Z" fill="#ffffff" class="color000000 svgShape"></path>
  <path d="M110 22a88 88 0 0 1 81.08 122.24 88.07 88.07 0 0 1-162.16 0A88 88 0 0 1 110 22m0-12a100 100 0 1 0 100 100A100 100 0 0 0 110 10Z" fill="#ffffff" class="color000000 svgShape"></path>
</svg>
